@startuml
class Idle {
    + Idle(movement:RPGCharacterMovementController)
    + <<override>> CanStartAction(controller:RPGCharacterController) : bool
    # <<override>> _StartAction(controller:RPGCharacterController, context:EmptyContext) : void
    + <<override>> IsActive() : bool
    - StartRandomIdleCountdown(controller:RPGCharacterController) : void
    - RandomIdle(controller:RPGCharacterController) : IEnumerator
}
class "MovementActionHandler`1"<T> {
}
"MovementActionHandler`1" "<EmptyContext>" <|-- Idle
Idle --> "randomIdleCoroutine" IEnumerator
@enduml
